<?xml version="1.0" standalone="no"?>
<!DOCTYPE svg PUBLIC "-//W3C//DTD SVG 20010904//EN"
 "http://www.w3.org/TR/2001/REC-SVG-20010904/DTD/svg10.dtd">
<svg version="1.0" xmlns="http://www.w3.org/2000/svg"
 width="1024.000000pt" height="1024.000000pt" viewBox="0 0 1024.000000 1024.000000"
 preserveAspectRatio="xMidYMid meet">
<metadata>
Created by potrace 1.15, written by Peter Selinger 2001-2017
</metadata>
<g transform="translate(0.000000,1024.000000) scale(0.100000,-0.100000)"
fill="#000000" stroke="none">
<path d="M2580 10224 c-850 -102 -1602 -560 -2082 -1269 -267 -394 -428 -829
-483 -1310 -23 -195 -23 -4855 0 -5050 67 -584 291 -1104 671 -1559 417 -499
1013 -853 1649 -980 235 -47 359 -56 766 -56 l376 0 1289 1279 c1665 1652
2429 2427 2553 2591 264 351 278 756 34 1020 -209 226 -515 303 -811 204 -160
-53 -176 -66 -722 -608 -278 -276 -545 -534 -595 -573 -382 -300 -822 -483
-1293 -538 -145 -17 -415 -19 -547 -5 -840 93 -1553 588 -1911 1325 -231 477
-297 973 -199 1515 92 513 334 991 712 1405 189 208 1191 1221 1914 1937 l694
688 -950 -1 c-740 -1 -975 -4 -1065 -15z"/>
<path d="M6530 9614 c-1649 -1628 -3141 -3129 -3267 -3289 -200 -252 -255
-564 -142 -802 40 -86 156 -204 249 -256 188 -104 436 -104 634 0 63 34 127
93 576 538 278 275 548 535 600 577 603 485 1371 681 2126 543 958 -176 1741
-899 1979 -1829 58 -228 70 -330 70 -616 0 -287 -11 -383 -71 -630 -86 -349
-255 -708 -479 -1015 -204 -279 -458 -544 -1917 -1993 l-848 -842 738 0 c797
0 863 3 1127 56 636 127 1232 481 1649 980 380 455 604 975 671 1559 23 195
23 4855 0 5050 -56 486 -215 915 -489 1319 -541 797 -1441 1276 -2396 1276
l-176 0 -634 -626z"/>
</g>
</svg>
